<svg width="204" height="38" viewBox="0 0 204 38" fill="none" xmlns="http://www.w3.org/2000/svg">
<path d="M13.9287 3.76428C14.2967 3.19206 14.9304 2.84619 15.6108 2.84619H29.4066C30.9892 2.84619 31.9448 4.5971 31.0887 5.9281L20.0222 23.1339C19.6542 23.7061 19.0205 24.0519 18.3401 24.0519H4.54423C2.96169 24.0519 2.00605 22.301 2.86213 20.97L13.9287 3.76428Z" fill="#1053D5"/>
<path d="M16.4232 26.0171C15.7429 26.0171 15.1092 26.363 14.7411 26.9352L12.0311 31.1488C11.175 32.4798 12.1306 34.2307 13.7132 34.2307H28.389C29.0694 34.2307 29.7031 33.8848 30.0711 33.3126L41.1377 16.1068C41.9938 14.7758 41.0381 13.0249 39.4556 13.0249H29.8696C29.1893 13.0249 28.5556 13.3708 28.1875 13.943L21.0121 25.099C20.644 25.6712 20.0103 26.0171 19.33 26.0171H16.4232Z" fill="#FF7020"/>
<path d="M57.71 29.5V8.5H63.53L71.93 22.21H68.87L77.03 8.5H82.85L82.91 29.5H76.46L76.4 18.22H77.42L71.84 27.61H68.72L62.9 18.22H64.16V29.5H57.71ZM97.343 29.98C95.643 29.98 94.063 29.71 92.603 29.17C91.163 28.63 89.913 27.87 88.853 26.89C87.793 25.89 86.963 24.72 86.363 23.38C85.783 22.04 85.493 20.58 85.493 19C85.493 17.4 85.783 15.94 86.363 14.62C86.963 13.28 87.793 12.12 88.853 11.14C89.913 10.14 91.163 9.37 92.603 8.83C94.063 8.29 95.643 8.02 97.343 8.02C99.063 8.02 100.643 8.29 102.083 8.83C103.523 9.37 104.773 10.14 105.833 11.14C106.893 12.12 107.713 13.28 108.293 14.62C108.893 15.94 109.193 17.4 109.193 19C109.193 20.58 108.893 22.04 108.293 23.38C107.713 24.72 106.893 25.89 105.833 26.89C104.773 27.87 103.523 28.63 102.083 29.17C100.643 29.71 99.063 29.98 97.343 29.98ZM97.343 24.25C98.003 24.25 98.613 24.13 99.173 23.89C99.753 23.65 100.253 23.31 100.673 22.87C101.113 22.41 101.453 21.86 101.693 21.22C101.933 20.56 102.053 19.82 102.053 19C102.053 18.18 101.933 17.45 101.693 16.81C101.453 16.15 101.113 15.6 100.673 15.16C100.253 14.7 99.753 14.35 99.173 14.11C98.613 13.87 98.003 13.75 97.343 13.75C96.683 13.75 96.063 13.87 95.483 14.11C94.923 14.35 94.423 14.7 93.983 15.16C93.563 15.6 93.233 16.15 92.993 16.81C92.753 17.45 92.633 18.18 92.633 19C92.633 19.82 92.753 20.56 92.993 21.22C93.233 21.86 93.563 22.41 93.983 22.87C94.423 23.31 94.923 23.65 95.483 23.89C96.063 24.13 96.683 24.25 97.343 24.25ZM111.763 29.5V8.5H117.583L128.263 21.28H125.563V8.5H132.463V29.5H126.643L115.963 16.72H118.663V29.5H111.763ZM135.874 29.5V8.5H146.224C148.564 8.5 150.624 8.93 152.404 9.79C154.184 10.63 155.574 11.83 156.574 13.39C157.574 14.95 158.074 16.81 158.074 18.97C158.074 21.15 157.574 23.03 156.574 24.61C155.574 26.17 154.184 27.38 152.404 28.24C150.624 29.08 148.564 29.5 146.224 29.5H135.874ZM142.954 23.98H145.924C146.924 23.98 147.794 23.79 148.534 23.41C149.294 23.03 149.884 22.47 150.304 21.73C150.724 20.97 150.934 20.05 150.934 18.97C150.934 17.91 150.724 17.01 150.304 16.27C149.884 15.53 149.294 14.97 148.534 14.59C147.794 14.21 146.924 14.02 145.924 14.02H142.954V23.98ZM158.086 29.5L167.266 8.5H174.226L183.406 29.5H176.086L169.306 11.86H172.066L165.286 29.5H158.086ZM163.546 25.84L165.346 20.74H175.006L176.806 25.84H163.546ZM188.589 29.5V20.29L190.209 24.52L180.669 8.5H188.139L194.589 19.45H190.239L196.749 8.5H203.589L194.109 24.52L195.669 20.29V29.5H188.589Z" fill="#292D32"/>
</svg>
