<svg width="41" height="32" viewBox="0 0 41 32" fill="none" xmlns="http://www.w3.org/2000/svg">
<path d="M12.9348 2.5229C13.3066 1.97152 13.9281 1.64099 14.5931 1.64099H27.0557C28.6578 1.64099 29.6096 3.4307 28.7139 4.75908L18.7016 19.6086C18.3298 20.16 17.7083 20.4906 17.0433 20.4906H4.58072C2.97858 20.4906 2.02678 18.7008 2.92245 17.3725L12.9348 2.5229Z" fill="#1053D5"/>
<path d="M15.35 22.2375C14.685 22.2375 14.0635 22.568 13.6918 23.1194L11.4661 26.4203C10.5705 27.7487 11.5223 29.5384 13.1244 29.5384H26.407C27.072 29.5384 27.6935 29.2079 28.0653 28.6565L38.0776 13.8069C38.9733 12.4785 38.0215 10.6888 36.4194 10.6888H27.8796C27.2146 10.6888 26.5931 11.0194 26.2214 11.5707L19.6239 21.3556C19.2521 21.9069 18.6306 22.2375 17.9656 22.2375H15.35Z" fill="#FF7020"/>
</svg>
