<svg width="56" height="56" viewBox="0 0 56 56" fill="none" xmlns="http://www.w3.org/2000/svg">
<rect x="0.5" y="0.5" width="55" height="55" fill="#F3F5F9" stroke="#F3F5F9"/>
<path d="M23.9998 41.3333H31.9998C38.6665 41.3333 41.3332 38.6666 41.3332 32V24C41.3332 17.3333 38.6665 14.6666 31.9998 14.6666H23.9998C17.3332 14.6666 14.6665 17.3333 14.6665 24V32C14.6665 38.6666 17.3332 41.3333 23.9998 41.3333Z" stroke="#6A7686" stroke-width="3" stroke-linecap="round" stroke-linejoin="round"/>
<path d="M24.0002 25.3333C25.4729 25.3333 26.6668 24.1394 26.6668 22.6667C26.6668 21.1939 25.4729 20 24.0002 20C22.5274 20 21.3335 21.1939 21.3335 22.6667C21.3335 24.1394 22.5274 25.3333 24.0002 25.3333Z" stroke="#6A7686" stroke-width="3" stroke-linecap="round" stroke-linejoin="round"/>
<path d="M15.5601 37.2667L22.1334 32.8534C23.1867 32.1467 24.7067 32.2267 25.6534 33.04L26.0934 33.4267C27.1334 34.32 28.8134 34.32 29.8534 33.4267L35.4001 28.6667C36.4401 27.7734 38.1201 27.7734 39.1601 28.6667L41.3334 30.5334" stroke="#6A7686" stroke-width="3" stroke-linecap="round" stroke-linejoin="round"/>
</svg>
