<svg width="100" height="100" viewBox="0 0 100 100" fill="none" xmlns="http://www.w3.org/2000/svg">
<mask id="mask0_174_13006" style="mask-type:alpha" maskUnits="userSpaceOnUse" x="0" y="0" width="100" height="100">
<rect width="100" height="100" rx="16" fill="#D9D9D9"/>
</mask>
<g mask="url(#mask0_174_13006)">
<rect width="100" height="100" fill="#F3F3F3"/>
<path d="M45.9998 63.3333H53.9998C60.6665 63.3333 63.3332 60.6666 63.3332 54V46C63.3332 39.3333 60.6665 36.6666 53.9998 36.6666H45.9998C39.3332 36.6666 36.6665 39.3333 36.6665 46V54C36.6665 60.6666 39.3332 63.3333 45.9998 63.3333Z" stroke="#6A7686" stroke-width="3" stroke-linecap="round" stroke-linejoin="round"/>
<path d="M46.0002 47.3333C47.4729 47.3333 48.6668 46.1394 48.6668 44.6667C48.6668 43.1939 47.4729 42 46.0002 42C44.5274 42 43.3335 43.1939 43.3335 44.6667C43.3335 46.1394 44.5274 47.3333 46.0002 47.3333Z" stroke="#6A7686" stroke-width="3" stroke-linecap="round" stroke-linejoin="round"/>
<path d="M37.5601 59.2667L44.1334 54.8534C45.1867 54.1467 46.7067 54.2267 47.6534 55.04L48.0934 55.4267C49.1334 56.32 50.8134 56.32 51.8534 55.4267L57.4001 50.6667C58.4401 49.7734 60.1201 49.7734 61.1601 50.6667L63.3334 52.5334" stroke="#6A7686" stroke-width="3" stroke-linecap="round" stroke-linejoin="round"/>
</g>
</svg>
